<svg width="17" height="17" viewBox="0 0 17 17" fill="none" xmlns="http://www.w3.org/2000/svg">
<path d="M8.50001 1C7.01665 1 5.5666 1.43987 4.33323 2.26398C3.09986 3.08809 2.13857 4.25943 1.57091 5.62988C1.00325 7.00033 0.854724 8.50833 1.14411 9.96319C1.4335 11.418 2.14781 12.7544 3.19671 13.8033C4.2456 14.8522 5.58198 15.5665 7.03683 15.8559C8.49169 16.1453 9.9997 15.9968 11.3701 15.4291C12.7406 14.8615 13.9119 13.9002 14.736 12.6668C15.5602 11.4334 16 9.98337 16 8.50001C16 6.51088 15.2098 4.60323 13.8033 3.1967C12.3968 1.79018 10.4891 1 8.50001 1Z" stroke="#9D9D9D" stroke-miterlimit="10"/>
<path d="M6.11353 6.21123C6.11353 6.21123 6.14932 5.46549 6.94748 4.8233C7.42091 4.44191 7.98853 4.33154 8.49989 4.32387C8.96566 4.3179 9.38157 4.39504 9.63043 4.5135C10.0566 4.71634 10.8863 5.21151 10.8863 6.2645C10.8863 7.37245 10.1618 7.87572 9.3364 8.42927C8.51097 8.98283 8.28682 9.58368 8.28682 10.2046" stroke="#9D9D9D" stroke-miterlimit="10" stroke-linecap="round"/>
<path d="M8.24436 13.2728C8.71506 13.2728 9.09664 12.8912 9.09664 12.4205C9.09664 11.9498 8.71506 11.5682 8.24436 11.5682C7.77367 11.5682 7.39209 11.9498 7.39209 12.4205C7.39209 12.8912 7.77367 13.2728 8.24436 13.2728Z" fill="#9D9D9D"/>
</svg>
