<svg width="15" height="15" viewBox="0 0 15 15" fill="none" xmlns="http://www.w3.org/2000/svg">
<path d="M13.5942 11.1867C13.098 10.6867 11.8961 9.95706 11.3129 9.66301C10.5535 9.28053 10.491 9.24928 9.89415 9.6927C9.49601 9.98862 9.23132 10.253 8.76537 10.1536C8.29942 10.0542 7.28689 9.49396 6.40031 8.61024C5.51373 7.72653 4.9209 6.6847 4.82121 6.22035C4.72152 5.75599 4.99028 5.49444 5.28341 5.0954C5.69654 4.53292 5.66529 4.43917 5.31216 3.67983C5.03684 3.08923 4.28588 1.89866 3.784 1.40493C3.24711 0.87464 3.24711 0.968386 2.90116 1.11213C2.61952 1.23062 2.34932 1.37465 2.09396 1.54242C1.59394 1.8746 1.31644 2.15052 1.12237 2.56519C0.928302 2.97986 0.841113 3.95201 1.84332 5.77255C2.84554 7.5931 3.54868 8.524 5.00403 9.97519C6.45937 11.4264 7.57846 12.2067 9.21444 13.1241C11.2382 14.2575 12.0145 14.0366 12.4305 13.8428C12.8464 13.6491 13.1236 13.3741 13.4564 12.8741C13.6246 12.6192 13.769 12.3493 13.8877 12.0679C14.0317 11.7232 14.1255 11.7232 13.5942 11.1867Z" stroke="white" stroke-miterlimit="10"/>
</svg>
