<svg width="8" height="12" viewBox="0 0 8 12" fill="none" xmlns="http://www.w3.org/2000/svg">
<path d="M1 3.58658C1 3.58658 1.04655 2.51977 2.08427 1.66439C2.70043 1.15652 3.44041 1.00943 4.10344 1.00038C4.70894 0.992944 5.2501 1.09542 5.5737 1.25318C6.12682 1.52409 7.20689 2.18357 7.20689 3.58658C7.20689 5.06298 6.26357 5.73216 5.19126 6.46955C4.11896 7.20694 3.84482 7.93011 3.84482 8.75899" stroke="white" stroke-miterlimit="10" stroke-linecap="round"/>
<path d="M3.75 11.5C4.16421 11.5 4.5 11.1642 4.5 10.75C4.5 10.3358 4.16421 10 3.75 10C3.33579 10 3 10.3358 3 10.75C3 11.1642 3.33579 11.5 3.75 11.5Z" fill="white"/>
</svg>
